<svg width="26" height="35" viewBox="0 0 26 35" fill="none" xmlns="http://www.w3.org/2000/svg">
<path d="M4.33331 4.87922C4.33331 2.35503 6.64261 0.461859 9.11778 0.956893L22.7845 3.69023C24.6542 4.06417 26 5.70583 26 7.61255V21.1208C26 23.645 23.6907 25.5382 21.2155 25.0431L7.54885 22.3098C5.67915 21.9359 4.33331 20.2942 4.33331 18.3875V4.87922Z" fill="#1F68B1" fill-opacity="0.8"/>
<path d="M2.16669 9.21256C2.16669 6.68837 4.47598 4.7952 6.95115 5.29024L20.6178 8.02357C22.4875 8.39751 23.8334 10.0392 23.8334 11.9459V25.4542C23.8334 27.9783 21.5241 29.8715 19.0489 29.3765L5.38222 26.6431C3.51252 26.2692 2.16669 24.6275 2.16669 22.7208V9.21256Z" fill="#3A95D3" fill-opacity="0.8"/>
<path d="M0 13.5459C0 11.0217 2.3093 9.12852 4.78446 9.62355L18.4511 12.3569C20.3208 12.7308 21.6667 14.3725 21.6667 16.2792V29.7875C21.6667 32.3117 19.3574 34.2048 16.8822 33.7098L3.21553 30.9765C1.34584 30.6025 0 28.9609 0 27.0541V13.5459Z" fill="#4FB1F0" fill-opacity="0.8"/>
</svg>
