<svg width="18" height="19" viewBox="0 0 18 19" fill="none" xmlns="http://www.w3.org/2000/svg">
<path d="M6.35296 11.4706V15.9412C6.35296 17.0457 5.45752 17.9412 4.35295 17.9412H3.05884C1.95427 17.9412 1.05884 17.0457 1.05884 15.9412V7.93208C1.05884 7.30107 1.35664 6.70706 1.86226 6.32952L7.80344 1.89345C8.51315 1.36353 9.48688 1.36353 10.1966 1.89345L16.1378 6.32952C16.6434 6.70706 16.9412 7.30106 16.9412 7.93208V15.9412C16.9412 17.0457 16.0458 17.9412 14.9412 17.9412H13.6471C12.5425 17.9412 11.6471 17.0457 11.6471 15.9412V11.4706C11.6471 10.366 10.7516 9.47059 9.64707 9.47059H8.35296C7.24839 9.47059 6.35296 10.366 6.35296 11.4706Z" stroke-width="1.5" stroke-linejoin="round"/>
</svg>
