<svg width="17" height="18" viewBox="0 0 17 18" fill="none" xmlns="http://www.w3.org/2000/svg">
<path d="M6 10.5V14.5C6 15.6046 5.10457 16.5 4 16.5H3C1.89543 16.5 1 15.6046 1 14.5V7.10267C1 6.47165 1.2978 5.87764 1.80342 5.50011L7.30342 1.39345C8.01313 0.863526 8.98687 0.863526 9.69658 1.39345L15.1966 5.50011C15.7022 5.87764 16 6.47165 16 7.10267V14.5C16 15.6046 15.1046 16.5 14 16.5H13C11.8954 16.5 11 15.6046 11 14.5V10.5C11 9.39543 10.1046 8.5 9 8.5H8C6.89543 8.5 6 9.39543 6 10.5Z" stroke-width="1.5" stroke-linejoin="round"/>
</svg>
