<svg width="111" height="35" viewBox="0 0 111 35" fill="none" xmlns="http://www.w3.org/2000/svg">
<path d="M4.33331 4.87922C4.33331 2.35503 6.64261 0.461859 9.11778 0.956893L22.7845 3.69023C24.6542 4.06417 26 5.70583 26 7.61255V21.1208C26 23.645 23.6907 25.5382 21.2155 25.0431L7.54885 22.3098C5.67915 21.9359 4.33331 20.2942 4.33331 18.3875V4.87922Z" fill="#1F68B1" fill-opacity="0.8"/>
<path d="M2.16669 9.21256C2.16669 6.68837 4.47598 4.7952 6.95115 5.29024L20.6178 8.02357C22.4875 8.39751 23.8334 10.0392 23.8334 11.9459V25.4542C23.8334 27.9783 21.5241 29.8715 19.0489 29.3765L5.38222 26.6431C3.51252 26.2692 2.16669 24.6275 2.16669 22.7208V9.21256Z" fill="#3A95D3" fill-opacity="0.8"/>
<path d="M0 13.5459C0 11.0217 2.3093 9.12852 4.78446 9.62355L18.4511 12.3569C20.3208 12.7308 21.6667 14.3725 21.6667 16.2792V29.7875C21.6667 32.3116 19.3574 34.2048 16.8822 33.7098L3.21553 30.9764C1.34584 30.6025 0 28.9609 0 27.0541V13.5459Z" fill="#4FB1F0" fill-opacity="0.8"/>
<path d="M39.38 25C39.1133 25 38.8667 24.94 38.64 24.82C38.4267 24.7 38.32 24.5267 38.32 24.3V11.06C38.32 10.8733 38.3933 10.7133 38.54 10.58C38.7 10.4467 38.9 10.38 39.14 10.38H43.04C43.8533 10.38 44.5933 10.5267 45.26 10.82C45.9267 11.1 46.4533 11.5667 46.84 12.22C47.2267 12.86 47.42 13.7133 47.42 14.78V14.94C47.42 16.0067 47.22 16.8667 46.82 17.52C46.4333 18.1733 45.8933 18.6467 45.2 18.94C44.52 19.22 43.76 19.36 42.92 19.36H40.44V24.3C40.44 24.5267 40.3267 24.7 40.1 24.82C39.8867 24.94 39.6467 25 39.38 25ZM40.44 17.68H42.92C43.6667 17.68 44.2467 17.4667 44.66 17.04C45.0867 16.6133 45.3 15.96 45.3 15.08V14.84C45.3 13.96 45.0867 13.3133 44.66 12.9C44.2467 12.4733 43.6667 12.26 42.92 12.26H40.44V17.68ZM52.238 25C51.9313 25 51.678 24.9267 51.478 24.78C51.2913 24.6333 51.198 24.4733 51.198 24.3V10.56C51.198 10.36 51.2913 10.2 51.478 10.08C51.678 9.94667 51.9313 9.88 52.238 9.88C52.5313 9.88 52.778 9.94667 52.978 10.08C53.1913 10.2 53.298 10.36 53.298 10.56V24.3C53.298 24.4733 53.1913 24.6333 52.978 24.78C52.778 24.9267 52.5313 25 52.238 25ZM59.7264 25.16C58.9931 25.16 58.3664 24.9467 57.8464 24.52C57.3264 24.08 57.0664 23.4133 57.0664 22.52C57.0664 21.76 57.2664 21.1733 57.6664 20.76C58.0664 20.3467 58.6131 20.06 59.3064 19.9C60.0131 19.74 60.8264 19.66 61.7464 19.66H62.6264V19.3C62.6264 18.9533 62.5597 18.62 62.4264 18.3C62.3064 17.9667 62.0997 17.6933 61.8064 17.48C61.5264 17.2533 61.1397 17.14 60.6464 17.14C60.1531 17.14 59.7731 17.1867 59.5064 17.28C59.2397 17.3733 59.0264 17.4733 58.8664 17.58C58.7064 17.6867 58.5597 17.74 58.4264 17.74C58.1864 17.74 57.9997 17.6267 57.8664 17.4C57.7331 17.16 57.6664 16.92 57.6664 16.68C57.6664 16.44 57.8197 16.2267 58.1264 16.04C58.4464 15.84 58.8397 15.6867 59.3064 15.58C59.7731 15.46 60.2331 15.4 60.6864 15.4C61.6731 15.4 62.4597 15.5867 63.0464 15.96C63.6331 16.32 64.0597 16.7933 64.3264 17.38C64.5931 17.9667 64.7264 18.6 64.7264 19.28V24.3C64.7264 24.4867 64.6264 24.6533 64.4264 24.8C64.2397 24.9333 63.9997 25 63.7064 25C63.4397 25 63.2131 24.9333 63.0264 24.8C62.8397 24.6533 62.7464 24.4867 62.7464 24.3V23.6C62.3997 24 61.9797 24.36 61.4864 24.68C60.9931 25 60.4064 25.16 59.7264 25.16ZM60.4864 23.56C60.8197 23.56 61.1464 23.46 61.4664 23.26C61.7997 23.06 62.0731 22.8067 62.2864 22.5C62.5131 22.1933 62.6264 21.88 62.6264 21.56V20.82H62.1264C61.6197 20.82 61.1397 20.8533 60.6864 20.92C60.2331 20.9733 59.8664 21.1067 59.5864 21.32C59.3197 21.52 59.1864 21.8333 59.1864 22.26C59.1864 22.7133 59.3064 23.0467 59.5464 23.26C59.7997 23.46 60.1131 23.56 60.4864 23.56ZM69.8861 25C69.5794 25 69.3261 24.9267 69.1261 24.78C68.9394 24.6333 68.8461 24.4733 68.8461 24.3V16.2C68.8461 16 68.9394 15.84 69.1261 15.72C69.3261 15.5867 69.5794 15.52 69.8861 15.52C70.1394 15.52 70.3594 15.5867 70.5461 15.72C70.7328 15.84 70.8261 16 70.8261 16.2V16.92C71.0261 16.5333 71.3528 16.1867 71.8061 15.88C72.2728 15.56 72.8394 15.4 73.5061 15.4C74.1328 15.4 74.7061 15.58 75.2261 15.94C75.7594 16.2867 76.1861 16.76 76.5061 17.36C76.8261 17.9467 76.9861 18.6067 76.9861 19.34V24.3C76.9861 24.5267 76.8728 24.7 76.6461 24.82C76.4328 24.94 76.1928 25 75.9261 25C75.6861 25 75.4528 24.94 75.2261 24.82C74.9994 24.7 74.8861 24.5267 74.8861 24.3V19.34C74.8861 18.9933 74.7928 18.66 74.6061 18.34C74.4328 18.02 74.1928 17.76 73.8861 17.56C73.5794 17.36 73.2394 17.26 72.8661 17.26C72.5461 17.26 72.2394 17.3467 71.9461 17.52C71.6528 17.68 71.4128 17.9133 71.2261 18.22C71.0394 18.5267 70.9461 18.9 70.9461 19.34V24.3C70.9461 24.4733 70.8394 24.6333 70.6261 24.78C70.4261 24.9267 70.1794 25 69.8861 25ZM82.1205 25C81.8138 25 81.5605 24.9267 81.3605 24.78C81.1738 24.6333 81.0805 24.4733 81.0805 24.3V16.2C81.0805 16 81.1738 15.84 81.3605 15.72C81.5605 15.5867 81.8138 15.52 82.1205 15.52C82.3738 15.52 82.5938 15.5867 82.7805 15.72C82.9671 15.84 83.0605 16 83.0605 16.2V16.92C83.2605 16.5333 83.5871 16.1867 84.0405 15.88C84.5071 15.56 85.0738 15.4 85.7405 15.4C86.3671 15.4 86.9405 15.58 87.4605 15.94C87.9938 16.2867 88.4205 16.76 88.7405 17.36C89.0605 17.9467 89.2205 18.6067 89.2205 19.34V24.3C89.2205 24.5267 89.1071 24.7 88.8805 24.82C88.6671 24.94 88.4271 25 88.1605 25C87.9205 25 87.6871 24.94 87.4605 24.82C87.2338 24.7 87.1205 24.5267 87.1205 24.3V19.34C87.1205 18.9933 87.0271 18.66 86.8405 18.34C86.6671 18.02 86.4271 17.76 86.1205 17.56C85.8138 17.36 85.4738 17.26 85.1005 17.26C84.7805 17.26 84.4738 17.3467 84.1805 17.52C83.8871 17.68 83.6471 17.9133 83.4605 18.22C83.2738 18.5267 83.1805 18.9 83.1805 19.34V24.3C83.1805 24.4733 83.0738 24.6333 82.8605 24.78C82.6605 24.9267 82.4138 25 82.1205 25ZM97.5948 25.16C96.6882 25.16 95.8882 24.9933 95.1948 24.66C94.5015 24.3267 93.9548 23.8667 93.5548 23.28C93.1548 22.68 92.9548 21.98 92.9548 21.18V19.28C92.9548 18.5733 93.1415 17.9267 93.5148 17.34C93.9015 16.7533 94.4082 16.2867 95.0348 15.94C95.6615 15.58 96.3548 15.4 97.1148 15.4C97.8348 15.4 98.4948 15.56 99.0948 15.88C99.6948 16.1867 100.175 16.62 100.535 17.18C100.908 17.74 101.095 18.38 101.095 19.1C101.095 19.66 101.008 20.06 100.835 20.3C100.662 20.54 100.435 20.6867 100.155 20.74C99.8748 20.7933 99.5815 20.82 99.2748 20.82H95.0548V21.28C95.0548 21.9467 95.2948 22.48 95.7748 22.88C96.2682 23.2667 96.8948 23.46 97.6548 23.46C98.1215 23.46 98.5015 23.3933 98.7948 23.26C99.0882 23.1267 99.3348 23 99.5348 22.88C99.7348 22.76 99.9215 22.7 100.095 22.7C100.268 22.7 100.415 22.7533 100.535 22.86C100.655 22.9667 100.748 23.0933 100.815 23.24C100.882 23.3867 100.915 23.52 100.915 23.64C100.915 23.84 100.775 24.06 100.495 24.3C100.228 24.54 99.8482 24.7467 99.3548 24.92C98.8615 25.08 98.2748 25.16 97.5948 25.16ZM95.0548 19.52H98.3748C98.6682 19.52 98.8615 19.48 98.9548 19.4C99.0615 19.32 99.1148 19.16 99.1148 18.92C99.1148 18.5733 99.0282 18.2533 98.8548 17.96C98.6815 17.6533 98.4415 17.42 98.1348 17.26C97.8282 17.0867 97.4815 17 97.0948 17C96.7215 17 96.3815 17.08 96.0748 17.24C95.7682 17.4 95.5215 17.62 95.3348 17.9C95.1482 18.18 95.0548 18.5067 95.0548 18.88V19.52ZM105.827 25C105.534 25 105.287 24.9267 105.087 24.78C104.9 24.6333 104.807 24.4733 104.807 24.3V16.2C104.807 16 104.9 15.84 105.087 15.72C105.287 15.5867 105.534 15.52 105.827 15.52C106.094 15.52 106.32 15.5867 106.507 15.72C106.694 15.84 106.787 16 106.787 16.2V17.08C106.934 16.8 107.127 16.5333 107.367 16.28C107.62 16.0267 107.914 15.82 108.247 15.66C108.58 15.4867 108.94 15.4 109.327 15.4H109.967C110.18 15.4 110.367 15.4933 110.527 15.68C110.687 15.8533 110.767 16.0667 110.767 16.32C110.767 16.5733 110.687 16.7933 110.527 16.98C110.367 17.1667 110.18 17.26 109.967 17.26H109.327C108.927 17.26 108.54 17.38 108.167 17.62C107.794 17.86 107.487 18.2 107.247 18.64C107.02 19.0667 106.907 19.5867 106.907 20.2V24.3C106.907 24.4733 106.8 24.6333 106.587 24.78C106.387 24.9267 106.134 25 105.827 25Z" fill="#FBFBFB"/>
</svg>
